<svg width="22" height="23" viewBox="0 0 22 23" fill="none" xmlns="http://www.w3.org/2000/svg">
<path d="M19.1714 15.7153L17.05 14.2224L13.6714 11.8653L11.3929 10.2939C11.3929 10.2939 11.3929 10.2939 11.3143 10.2153C11.2357 10.2153 11.1571 10.1367 11.1571 10.1367C11.0786 10.1367 11 10.1367 10.9214 10.1367H10.8429C10.7643 10.1367 10.6857 10.2153 10.6857 10.2153C10.6857 10.2153 10.6857 10.2153 10.6071 10.2153L8.32857 11.7867L4.95 14.1439L2.82857 15.7153C1.25714 15.8724 0 17.2081 0 18.8581C0 20.5867 1.41429 22.001 3.14286 22.001C4.87143 22.001 6.28571 20.5867 6.28571 18.8581C6.28571 17.7581 5.73571 16.8153 4.87143 16.2653L5.81429 15.5581L9.19286 13.201L10.2143 12.4939V13.751V15.7939C8.87857 16.1081 7.85714 17.3653 7.85714 18.8581C7.85714 20.5867 9.27143 22.001 11 22.001C12.7286 22.001 14.1429 20.5867 14.1429 18.8581C14.1429 17.3653 13.1214 16.1867 11.7857 15.7939V13.751V12.4939L12.8071 13.201L16.1857 15.5581L17.1286 16.2653C16.2643 16.8153 15.7143 17.7581 15.7143 18.8581C15.7143 20.5867 17.1286 22.001 18.8571 22.001C20.5857 22.001 22 20.5867 22 18.8581C22 17.2081 20.7429 15.8724 19.1714 15.7153Z" fill="url(#paint0_linear_31_355)"/>
<path d="M7.07143 9.42857H14.9286C15.1643 9.42857 15.4 9.35 15.5571 9.11429C15.7143 8.95714 15.7929 8.72143 15.7143 8.48571C15.4786 7.30714 14.6143 6.36429 13.4357 6.05C13.1214 5.97143 12.8857 5.73571 12.8071 5.42143C13.1214 5.02857 13.3571 4.47857 13.3571 3.92857V2.35714C13.3571 1.02143 12.3357 0 11 0C9.66429 0 8.64286 1.02143 8.64286 2.35714V3.92857C8.64286 4.47857 8.87858 5.02857 9.19286 5.42143C9.11429 5.73571 8.87857 5.97143 8.56429 6.05C7.38572 6.36429 6.52143 7.30714 6.36429 8.48571C6.28572 8.72143 6.36429 8.95714 6.52143 9.11429C6.6 9.35 6.83572 9.42857 7.07143 9.42857Z" fill="url(#paint1_linear_31_355)"/>
<defs>
<linearGradient id="paint0_linear_31_355" x1="22.5" y1="19.8437" x2="-1" y2="19.8437" gradientUnits="userSpaceOnUse">
<stop stop-color="#0016FF"/>
<stop offset="1" stop-color="#00A8FF"/>
</linearGradient>
<linearGradient id="paint1_linear_31_355" x1="15.959" y1="7.71418" x2="5.90566" y2="7.71418" gradientUnits="userSpaceOnUse">
<stop stop-color="#0016FF"/>
<stop offset="1" stop-color="#00A8FF"/>
</linearGradient>
</defs>
</svg>
