<svg width="22" height="22" viewBox="0 0 22 22" fill="none" xmlns="http://www.w3.org/2000/svg">
<path d="M8 20.62L8.33 18.05C8.47232 16.9516 8.9753 15.9316 9.76 15.15L15.44 9.46C16.1441 8.77477 17.0345 8.31218 18 8.13V5C18 4.34339 17.8707 3.69321 17.6194 3.08658C17.3681 2.47995 16.9998 1.92876 16.5355 1.46447C16.0712 1.00017 15.52 0.631876 14.9134 0.380602C14.3068 0.129329 13.6566 0 13 0H5C4.34339 0 3.69321 0.129329 3.08658 0.380602C2.47995 0.631876 1.92876 1.00017 1.46447 1.46447C0.526784 2.40215 0 3.67392 0 5V17C0 17.6566 0.129329 18.3068 0.380602 18.9134C0.631876 19.52 1.00017 20.0712 1.46447 20.5355C2.40215 21.4732 3.67392 22 5 22H8.18C8.01042 21.561 7.94869 21.0878 8 20.62V20.62ZM4 6H12C12.2652 6 12.5196 6.10536 12.7071 6.29289C12.8946 6.48043 13 6.73478 13 7C13 7.26522 12.8946 7.51957 12.7071 7.70711C12.5196 7.89464 12.2652 8 12 8H4C3.73478 8 3.48043 7.89464 3.29289 7.70711C3.10536 7.51957 3 7.26522 3 7C3 6.73478 3.10536 6.48043 3.29289 6.29289C3.48043 6.10536 3.73478 6 4 6V6ZM4 10H10C10.2652 10 10.5196 10.1054 10.7071 10.2929C10.8946 10.4804 11 10.7348 11 11C11 11.2652 10.8946 11.5196 10.7071 11.7071C10.5196 11.8946 10.2652 12 10 12H4C3.73478 12 3.48043 11.8946 3.29289 11.7071C3.10536 11.5196 3 11.2652 3 11C3 10.7348 3.10536 10.4804 3.29289 10.2929C3.48043 10.1054 3.73478 10 4 10ZM6 16H4C3.73478 16 3.48043 15.8946 3.29289 15.7071C3.10536 15.5196 3 15.2652 3 15C3 14.7348 3.10536 14.4804 3.29289 14.2929C3.48043 14.1054 3.73478 14 4 14H6C6.26522 14 6.51957 14.1054 6.70711 14.2929C6.89464 14.4804 7 14.7348 7 15C7 15.2652 6.89464 15.5196 6.70711 15.7071C6.51957 15.8946 6.26522 16 6 16ZM21.12 15.12L15.43 20.81C14.9631 21.2824 14.3496 21.5821 13.69 21.66L11.13 22H11C10.857 22.0012 10.7154 21.9717 10.5847 21.9136C10.4541 21.8554 10.3374 21.7699 10.2426 21.6628C10.1479 21.5556 10.0772 21.4295 10.0353 21.2927C9.99344 21.1559 9.9814 21.0118 10 20.87L10.33 18.31C10.4079 17.6504 10.7076 17.0369 11.18 16.57L16.87 10.88C17.4423 10.337 18.2011 10.0343 18.99 10.0343C19.7789 10.0343 20.5377 10.337 21.11 10.88C21.6731 11.4412 21.9905 12.2029 21.9924 12.9979C21.9942 13.7929 21.6805 14.5562 21.12 15.12V15.12Z" fill="url(#paint0_linear_31_359)"/>
<defs>
<linearGradient id="paint0_linear_31_359" x1="22.5" y1="12" x2="1" y2="12" gradientUnits="userSpaceOnUse">
<stop stop-color="#000CFF"/>
<stop offset="1" stop-color="#00A8FF"/>
</linearGradient>
</defs>
</svg>
