<svg width="760" height="814" viewBox="0 0 760 814" fill="none" xmlns="http://www.w3.org/2000/svg">
<path d="M380.215 758.706C171.046 758.706 0.939575 588.658 0.939575 379.563C0.939575 170.467 171.046 0.419922 380.215 0.419922C589.383 0.419922 759.49 170.467 759.49 379.563C759.49 588.658 589.383 758.706 380.215 758.706ZM380.215 5.0385C173.986 5.0385 5.97976 172.987 5.97976 379.143C5.97976 585.299 173.986 753.247 380.215 753.247C586.443 753.247 754.45 585.299 754.45 379.143C754.45 172.987 586.443 5.0385 380.215 5.0385Z" fill="#CCCCCC"/>
<path d="M380.215 351.431C378.955 351.431 377.695 350.172 377.695 348.912V2.51922C377.695 1.25961 378.955 0 380.215 0C381.475 0 382.735 1.25961 382.735 2.51922V348.912C382.735 350.172 381.475 351.431 380.215 351.431Z" fill="#CCCCCC"/>
<path d="M756.97 382.081H410.456C409.196 382.081 407.936 380.822 407.936 379.562C407.936 378.303 409.196 377.043 410.456 377.043H756.97C758.23 377.043 759.49 378.303 759.49 379.562C759.49 380.822 758.65 382.081 756.97 382.081Z" fill="#CCCCCC"/>
<path d="M349.554 382.081H3.4597C2.19965 382.081 0.939575 380.822 0.939575 379.562C0.939575 378.303 2.19965 377.043 3.4597 377.043H349.554C350.814 377.043 352.074 378.303 352.074 379.562C352.074 380.822 351.234 382.081 349.554 382.081Z" fill="#CCCCCC"/>
<path d="M380.215 758.705C378.955 758.705 377.695 757.445 377.695 756.186V409.793C377.695 408.533 378.955 407.273 380.215 407.273C381.475 407.273 382.735 408.533 382.735 409.793V756.186C382.735 757.445 381.475 758.705 380.215 758.705Z" fill="#CCCCCC"/>
<path d="M402.476 361.088C401.216 361.088 399.956 359.828 399.956 358.569C399.956 357.729 400.376 357.309 400.796 356.889L644.405 113.364C645.245 112.524 646.926 112.524 648.186 113.364C649.026 114.204 649.026 115.883 648.186 117.143L404.576 360.668C404.156 361.088 403.316 361.088 402.476 361.088Z" fill="#CCCCCC"/>
<path d="M357.534 361.088C356.694 361.088 356.274 360.668 355.854 360.248L112.244 116.723C111.404 115.883 111.404 114.204 112.244 112.944C113.084 112.105 114.764 112.105 116.024 112.944L359.634 356.469C360.474 357.309 360.474 358.988 359.634 360.248C359.214 361.088 358.374 361.088 357.534 361.088Z" fill="#CCCCCC"/>
<path d="M646.506 646.181C645.666 646.181 645.245 645.762 644.825 645.342L401.216 401.817C400.376 400.977 400.376 399.298 401.216 398.038C402.056 397.198 403.736 397.198 404.996 398.038L648.606 641.563C649.446 642.403 649.446 644.082 648.606 645.342C647.766 646.181 646.926 646.181 646.506 646.181Z" fill="#CCCCCC"/>
<path d="M113.924 646.181C112.664 646.181 111.404 644.922 111.404 643.662C111.404 642.823 111.824 642.403 112.244 641.983L355.854 398.458C356.694 397.618 358.374 397.618 359.634 398.458C360.474 399.298 360.474 400.977 359.634 402.237L116.024 645.762C115.184 646.181 114.764 646.181 113.924 646.181Z" fill="#CCCCCC"/>
<path d="M380.215 640.303C236.149 640.303 119.384 523.579 119.384 379.564C119.384 235.548 236.149 118.404 380.215 118.404C524.28 118.404 641.045 235.128 641.045 379.144C641.045 523.579 524.28 640.303 380.215 640.303ZM380.215 123.443C238.669 123.443 124.424 238.067 124.424 379.144C124.424 520.22 239.089 634.845 380.215 634.845C521.34 634.845 636.005 520.22 636.005 379.144C636.005 238.067 521.34 123.863 380.215 123.443Z" fill="#CCCCCC"/>
<path d="M380.215 410.213C397.148 410.213 410.876 396.49 410.876 379.563C410.876 362.635 397.148 348.912 380.215 348.912C363.281 348.912 349.553 362.635 349.553 379.563C349.553 396.49 363.281 410.213 380.215 410.213Z" fill="#3F3D56"/>
<path d="M420.956 78.9355H336.953V124.701H420.956V78.9355Z" fill="#CCCCCC"/>
<path d="M375.175 89.0117H341.993V124.701H375.175V89.0117Z" fill="white"/>
<path d="M415.916 89.0117H382.735V124.701H415.916V89.0117Z" fill="white"/>
<path d="M378.955 174.666C352.074 174.666 330.653 152.833 330.653 126.381V125.122C330.653 118.824 335.693 113.785 341.993 113.785H415.916C422.216 113.785 427.257 118.824 427.257 125.122V126.381C427.257 152.833 405.416 174.246 378.955 174.666Z" fill="#CCCCCC"/>
<path d="M417.596 90.272H339.893C336.533 90.272 333.593 87.333 333.593 83.974C333.593 83.1342 334.013 81.8746 334.433 81.0349L349.553 50.3844C350.814 48.285 352.914 47.0254 355.434 47.0254H402.476C404.996 47.0254 407.096 48.285 408.356 50.3844L423.476 81.0349C425.157 83.974 423.896 88.1727 420.536 89.4323C419.696 90.272 418.856 90.272 417.596 90.272Z" fill="url(#paint0_linear_29_234)"/>
<path d="M647.345 180.965H563.342V226.731H647.345V180.965Z" fill="#CCCCCC"/>
<path d="M601.984 191.041H568.802V226.73H601.984V191.041Z" fill="white"/>
<path d="M642.725 191.041H609.544V226.73H642.725V191.041Z" fill="white"/>
<path d="M605.344 276.274C578.463 276.274 557.042 254.441 557.042 227.989V226.729C557.042 220.431 562.082 215.393 568.382 215.393H642.305C648.606 215.393 653.646 220.431 653.646 226.729V227.989C654.066 254.441 632.225 276.274 605.344 276.274Z" fill="#CCCCCC"/>
<path d="M581.823 151.572C580.563 151.572 578.883 152.412 578.463 153.672L563.342 184.322C562.502 186.002 563.342 188.521 565.022 189.361C565.442 189.78 566.282 189.78 566.702 189.78H644.405C646.505 189.78 648.185 188.101 648.185 186.002C648.185 185.582 648.185 184.742 647.765 184.322L632.645 153.672C631.805 152.412 630.545 151.572 629.285 151.572H581.823Z" fill="url(#paint1_linear_29_234)"/>
<path d="M736.809 409.793H652.806V455.559H736.809V409.793Z" fill="#CCCCCC"/>
<path d="M691.027 420.291H657.846V455.98H691.027V420.291Z" fill="white"/>
<path d="M731.769 420.291H698.588V455.98H731.769V420.291Z" fill="white"/>
<path d="M694.807 505.524C667.926 505.524 646.505 483.691 646.505 457.239V455.979C646.505 449.681 651.546 444.643 657.846 444.643H731.769C738.069 444.643 743.109 449.681 743.109 455.979V457.239C743.109 483.691 721.268 505.524 694.807 505.524Z" fill="#CCCCCC"/>
<path d="M733.449 421.549H655.746C652.386 421.549 649.446 418.61 649.446 415.251C649.446 414.412 649.866 413.152 650.286 412.312L665.406 381.662C666.666 379.562 668.766 378.303 671.286 378.303H718.328C720.848 378.303 722.949 379.562 724.209 381.662L739.329 412.312C741.009 415.251 739.749 419.45 736.389 420.71C735.549 421.13 734.709 421.549 733.449 421.549Z" fill="url(#paint2_linear_29_234)"/>
<path d="M642.305 623.928H558.302V669.694H642.305V623.928Z" fill="#CCCCCC"/>
<path d="M596.523 634.004H563.342V669.693H596.523V634.004Z" fill="white"/>
<path d="M637.265 634.004H604.084V669.693H637.265V634.004Z" fill="white"/>
<path d="M600.304 719.239C573.423 719.239 552.002 697.405 552.002 670.954V669.694C552.002 663.396 557.042 658.357 563.342 658.357H637.265C643.565 658.357 648.606 663.396 648.606 669.694V670.954C648.606 697.405 627.185 719.239 600.304 719.239Z" fill="#CCCCCC"/>
<path d="M639.365 635.264H561.662C558.302 635.264 555.362 632.325 555.362 628.966C555.362 628.126 555.782 626.867 556.202 626.027L571.322 595.377C572.582 593.277 574.683 592.018 577.203 592.018H623.825C626.345 592.018 628.445 593.277 629.705 595.377L644.825 626.027C646.505 628.966 645.245 633.165 641.885 634.425C641.465 634.844 640.205 635.264 639.365 635.264Z" fill="url(#paint3_linear_29_234)"/>
<path d="M196.667 180.965H112.664V226.731H196.667V180.965Z" fill="#CCCCCC"/>
<path d="M191.627 191.041H158.446V226.73H191.627V191.041Z" fill="white"/>
<path d="M150.886 191.041H117.704V226.73H150.886V191.041Z" fill="white"/>
<path d="M154.666 276.274C127.785 276.274 106.364 254.441 106.364 227.989V226.729C106.364 220.431 111.404 215.393 117.704 215.393H191.627C197.927 215.393 202.968 220.431 202.968 226.729V227.989C202.968 254.441 181.547 276.274 154.666 276.274Z" fill="#CCCCCC"/>
<path d="M193.727 192.301H116.024C112.664 192.301 109.724 189.362 109.724 186.003C109.724 185.164 110.144 183.904 110.564 183.064L125.685 152.414C126.945 150.314 129.045 149.055 131.565 149.055H178.607C181.127 149.055 183.227 150.314 184.487 152.414L199.607 183.064C201.288 186.003 200.028 190.202 196.667 191.462C195.827 191.881 194.567 192.301 193.727 192.301Z" fill="url(#paint4_linear_29_234)"/>
<path d="M107.624 409.793H23.6204V455.559H107.624V409.793Z" fill="#CCCCCC"/>
<path d="M102.584 420.291H69.4023V455.98H102.584V420.291Z" fill="white"/>
<path d="M61.8419 420.291H28.6606V455.98H61.8419V420.291Z" fill="white"/>
<path d="M65.6221 505.524C38.741 505.524 17.3202 483.691 17.3202 457.239V455.979C17.3202 449.681 22.3604 444.643 28.6607 444.643H102.584C108.884 444.643 113.924 449.681 113.924 455.979V457.239C113.924 483.691 92.5032 505.524 65.6221 505.524Z" fill="#CCCCCC"/>
<path d="M104.684 421.549H26.9806C23.6204 421.549 20.6803 418.61 20.6803 415.251C20.6803 414.412 21.1003 413.152 21.5203 412.312L36.641 381.662C37.901 379.562 40.0011 378.303 42.5212 378.303H89.5631C92.0832 378.303 94.1833 379.562 95.4433 381.662L110.564 412.312C112.244 415.251 110.984 419.45 107.624 420.71C106.364 421.13 105.524 421.549 104.684 421.549Z" fill="url(#paint5_linear_29_234)"/>
<path d="M201.707 623.928H117.704V669.694H201.707V623.928Z" fill="#CCCCCC"/>
<path d="M197.087 634.004H163.906V669.693H197.087V634.004Z" fill="white"/>
<path d="M156.346 634.004H123.164V669.693H156.346V634.004Z" fill="white"/>
<path d="M159.706 719.239C132.825 719.239 111.404 697.405 111.404 670.954V669.694C111.404 663.396 116.444 658.357 122.744 658.357H196.667C202.968 658.357 208.008 663.396 208.008 669.694V670.954C208.428 697.405 186.587 719.239 159.706 719.239Z" fill="#CCCCCC"/>
<path d="M198.768 635.264H121.064C117.704 635.264 114.764 632.325 114.764 628.966C114.764 628.126 115.184 626.867 115.604 626.027L130.725 595.377C131.985 593.277 134.085 592.018 136.605 592.018H183.647C186.167 592.018 188.267 593.277 189.527 595.377L204.648 626.027C206.328 628.966 205.068 633.165 201.708 634.425C200.868 634.844 199.608 635.264 198.768 635.264Z" fill="url(#paint6_linear_29_234)"/>
<path d="M420.956 720.498H336.953V766.264H420.956V720.498Z" fill="#CCCCCC"/>
<path d="M375.175 730.574H341.993V766.263H375.175V730.574Z" fill="white"/>
<path d="M415.916 730.574H382.735V766.263H415.916V730.574Z" fill="white"/>
<path d="M341.993 757.445C336.953 757.445 333.173 761.644 333.173 766.263V767.522C333.173 792.714 353.754 813.288 378.955 813.288C404.156 813.288 424.736 792.714 424.736 767.522V766.263C424.736 761.224 420.536 757.445 415.916 757.445H341.993Z" fill="#CCCCCC"/>
<path d="M355.434 691.107C354.174 691.107 352.494 691.947 352.074 693.207L336.953 723.857C336.113 725.537 336.953 728.056 338.633 728.896C339.053 729.316 339.893 729.316 340.313 729.316H418.016C420.116 729.316 421.796 727.636 421.796 725.537C421.796 725.117 421.796 724.277 421.376 723.857L406.256 693.207C405.416 691.947 404.156 691.107 402.896 691.107H355.434Z" fill="url(#paint7_linear_29_234)"/>
<defs>
<linearGradient id="paint0_linear_29_234" x1="333.593" y1="68.6487" x2="424.063" y2="68.6487" gradientUnits="userSpaceOnUse">
<stop stop-color="#6AFCFF"/>
<stop offset="1" stop-color="#B615FF"/>
</linearGradient>
<linearGradient id="paint1_linear_29_234" x1="562.843" y1="170.676" x2="648.22" y2="170.676" gradientUnits="userSpaceOnUse">
<stop stop-color="#6AFCFF"/>
<stop offset="1" stop-color="#B615FF"/>
</linearGradient>
<linearGradient id="paint2_linear_29_234" x1="649.446" y1="399.926" x2="739.916" y2="399.926" gradientUnits="userSpaceOnUse">
<stop stop-color="#6AFCFF"/>
<stop offset="1" stop-color="#B615FF"/>
</linearGradient>
<linearGradient id="paint3_linear_29_234" x1="555.205" y1="613.641" x2="645.675" y2="613.641" gradientUnits="userSpaceOnUse">
<stop stop-color="#6AFCFF"/>
<stop offset="1" stop-color="#B615FF"/>
</linearGradient>
<linearGradient id="paint4_linear_29_234" x1="109.585" y1="170.678" x2="200.055" y2="170.678" gradientUnits="userSpaceOnUse">
<stop stop-color="#6AFCFF"/>
<stop offset="1" stop-color="#B615FF"/>
</linearGradient>
<linearGradient id="paint5_linear_29_234" x1="20.4606" y1="399.926" x2="110.931" y2="399.926" gradientUnits="userSpaceOnUse">
<stop stop-color="#6AFCFF"/>
<stop offset="1" stop-color="#B615FF"/>
</linearGradient>
<linearGradient id="paint6_linear_29_234" x1="114.764" y1="613.641" x2="205.234" y2="613.641" gradientUnits="userSpaceOnUse">
<stop stop-color="#6AFCFF"/>
<stop offset="1" stop-color="#B615FF"/>
</linearGradient>
<linearGradient id="paint7_linear_29_234" x1="336.214" y1="710.212" x2="421.59" y2="710.212" gradientUnits="userSpaceOnUse">
<stop stop-color="#6AFCFF"/>
<stop offset="1" stop-color="#B615FF"/>
</linearGradient>
</defs>
</svg>
