<svg width="24" height="18" viewBox="0 0 24 18" fill="none" xmlns="http://www.w3.org/2000/svg">
<path d="M18.5236 0.220306C16.1188 -0.528167 15.3636 0.889992 12 0.889992C8.63642 0.889992 7.88122 -0.533795 5.47637 0.220306C3.07152 0.968778 1.87177 3.61938 0.736295 8.59419C-0.39918 13.5746 -0.190295 17.1707 1.14871 17.8404C2.48771 18.5101 3.99811 16.9737 5.43888 15.0772C6.60649 13.5915 7.1903 13.4958 12 13.4958C16.8043 13.4958 17.3025 13.5352 18.5611 15.0772C20.0019 16.9737 21.5123 18.5101 22.8513 17.8404C24.1903 17.1707 24.3992 13.5746 23.2637 8.59419C22.1282 3.61938 20.9231 0.974406 18.5236 0.220306ZM5.15501 9.42708C3.99275 9.42708 3.05009 8.43099 3.05009 7.19855C3.05009 5.97173 3.99275 4.97001 5.15501 4.97001C6.31727 4.97001 7.25992 5.97173 7.25992 7.19855C7.25992 8.42537 6.31727 9.42708 5.15501 9.42708ZM14.8762 8.29593C14.3084 8.29593 13.8425 7.80633 13.8425 7.20417C13.8425 6.60202 14.3084 6.11242 14.8762 6.11242C15.4493 6.11242 15.9152 6.60202 15.9152 7.20417C15.9099 7.80633 15.4493 8.29593 14.8762 8.29593ZM17.1364 10.682C16.5687 10.682 16.1027 10.1924 16.1027 9.59028C16.1027 8.9825 16.5687 8.49853 17.1364 8.49853C17.7095 8.49853 18.1755 8.98813 18.1755 9.59028C18.1755 10.1981 17.7095 10.682 17.1364 10.682ZM17.1364 5.9042C16.5687 5.9042 16.1027 5.41459 16.1027 4.81244C16.1027 4.21028 16.5687 3.72068 17.1364 3.72068C17.7095 3.72068 18.1755 4.21028 18.1755 4.81244C18.1755 5.41459 17.7095 5.9042 17.1364 5.9042ZM19.402 8.29593C18.8289 8.29593 18.3683 7.80633 18.3683 7.20417C18.3683 6.60202 18.8343 6.11242 19.402 6.11242C19.9698 6.11242 20.4357 6.60202 20.4357 7.20417C20.4357 7.80633 19.9751 8.29593 19.402 8.29593Z" fill="url(#paint0_linear_31_366)"/>
<defs>
<linearGradient id="paint0_linear_31_366" x1="24" y1="9" x2="2.68222e-07" y2="9" gradientUnits="userSpaceOnUse">
<stop stop-color="#0018FF"/>
<stop offset="1" stop-color="#00A8FF"/>
</linearGradient>
</defs>
</svg>
