<svg width="25" height="20" viewBox="0 0 25 20" fill="none" xmlns="http://www.w3.org/2000/svg">
<path d="M23.5309 8.2832H22.8199C22.4138 8.2832 21.8615 8.2832 21.2417 8.2832C18.9069 8.2832 15.5441 8.2832 14.7268 8.2832C13.4432 8.2832 12.7913 8.7121 12.7913 8.7121L5.9932 13.8205C5.9626 13.8444 5.92215 13.8931 5.87962 13.9512C5.62809 14.1768 5.46213 14.4942 5.46213 14.8583C5.46213 15.5367 6.01239 16.0864 6.69075 16.0864C6.9708 16.0864 7.21352 15.9739 7.41993 15.8152V15.8426L7.81719 15.5641C8.72893 14.9745 12.4309 12.5795 12.7462 12.3959C13.1071 12.1874 13.6164 12.2154 14.0064 12.7563C14.4561 13.6561 13.3167 14.3158 13.3167 14.3158L9.34557 16.9074C8.56971 17.413 7.88461 17.5136 7.54284 17.5313L1.94224 17.5557C1.852 17.5557 1.76695 17.5603 1.68034 17.564H1.25092C1.23899 17.564 1.22862 17.5567 1.21565 17.5567C0.792455 17.5567 0.437717 17.787 0.219377 18.1152C0.210042 18.1292 0.200188 18.1427 0.190853 18.1578C0.0803865 18.3408 0 18.5431 0 18.7723C0 19.4434 0.544035 19.988 1.21565 19.988H1.21669H1.37331H3.21027H10.3844C10.6784 19.9844 11.7909 19.9252 12.852 19.2267L18.8861 15.2509C18.9053 15.2379 19.4634 14.8692 20.4804 14.863C21.0255 14.8583 21.7889 14.8567 22.7603 14.8702C22.7603 14.8702 22.7711 14.8702 22.7753 14.8702C22.7872 14.8702 22.8017 14.8702 22.8126 14.8702C22.8614 14.8702 22.9444 14.8666 23.0413 14.8536H23.5304C24.201 14.8536 24.744 14.3106 24.744 13.6395V9.49782C24.744 8.82724 24.2015 8.2832 23.5309 8.2832Z" fill="url(#paint0_linear_31_362)"/>
<path d="M0.413875 3.22324C0.413875 3.22324 0.42684 3.29429 0.458995 3.41772V3.42239H0.460032C0.665406 4.22729 1.70161 7.38985 5.76606 10.1821L5.76813 10.194L6.16695 10.4585L6.3967 10.3066L6.39878 10.2983C10.6702 7.43341 11.697 4.13446 11.8832 3.38401L11.8842 3.38038C11.9081 3.27977 11.9185 3.22272 11.9185 3.22272L11.9055 3.21909C11.9268 3.03083 11.9506 2.70825 11.8832 2.42456C11.8822 2.41626 11.8749 2.41834 11.8723 2.41056C11.6488 1.04502 10.4715 0 9.04271 0C7.519 0 6.28572 1.18816 6.18614 2.68595H6.14828C6.04767 1.18816 4.81283 0 3.29067 0C1.80378 0 0.594355 1.13267 0.443436 2.58015C0.430471 2.58741 0.420098 2.60608 0.413875 2.64186C0.382757 2.82182 0.404539 3.05313 0.427877 3.21909L0.413875 3.22324Z" fill="url(#paint1_linear_31_362)"/>
<defs>
<linearGradient id="paint0_linear_31_362" x1="25.5" y1="14.7247" x2="-0.5" y2="14.7247" gradientUnits="userSpaceOnUse">
<stop stop-color="#0018FF"/>
<stop offset="1" stop-color="#00A8FF"/>
</linearGradient>
<linearGradient id="paint1_linear_31_362" x1="12.2799" y1="5.75564" x2="0.165468" y2="5.75564" gradientUnits="userSpaceOnUse">
<stop stop-color="#0018FF"/>
<stop offset="1" stop-color="#00A8FF"/>
</linearGradient>
</defs>
</svg>
