<svg width="22" height="17" viewBox="0 0 22 17" fill="none" xmlns="http://www.w3.org/2000/svg">
<path d="M0 2.175C0 1.11185 0.861851 0.25 1.925 0.25H16.775C17.8382 0.25 18.7 1.11185 18.7 2.175V11.525C18.7 12.5882 17.8382 13.45 16.775 13.45H1.925C0.861851 13.45 0 12.5882 0 11.525V2.175ZM3.3 1.625V2.725C3.3 3.18063 2.93063 3.55 2.475 3.55H1.375V5.2H2.475C3.84191 5.2 4.95 4.09191 4.95 2.725V1.625H3.3ZM9.35001 9.60001C10.7169 9.60001 11.825 8.49187 11.825 7.125C11.825 5.75814 10.7169 4.65 9.35001 4.65C7.9831 4.65 6.875 5.75814 6.875 7.125C6.875 8.49187 7.9831 9.60001 9.35001 9.60001ZM1.375 10.15H2.475C2.93063 10.15 3.3 10.5194 3.3 10.975V12.075H4.95V10.975C4.95 9.60815 3.84191 8.50001 2.475 8.50001H1.375V10.15ZM15.4 10.975C15.4 10.5194 15.7694 10.15 16.225 10.15H17.325V8.50001H16.225C14.8582 8.50001 13.75 9.60815 13.75 10.975V12.075H15.4V10.975ZM15.4 2.725V1.625H13.75V2.725C13.75 4.09191 14.8582 5.2 16.225 5.2H17.325V3.55H16.225C15.7694 3.55 15.4 3.18063 15.4 2.725Z" fill="url(#paint0_linear_31_385)"/>
<path d="M2.64148 15.0991C3.21206 16.0855 4.27853 16.7491 5.5 16.7491H16.775C19.6607 16.7491 22 14.4099 22 11.5241V5.74914C22 4.52768 21.3364 3.46121 20.35 2.89062V11.5241C20.35 13.4985 18.7494 15.0991 16.775 15.0991H2.64148Z" fill="url(#paint1_linear_31_385)"/>
<defs>
<linearGradient id="paint0_linear_31_385" x1="19.125" y1="8.0505" x2="-0.850001" y2="8.0505" gradientUnits="userSpaceOnUse">
<stop stop-color="#0016FF"/>
<stop offset="1" stop-color="#00A8FF"/>
</linearGradient>
<linearGradient id="paint1_linear_31_385" x1="22.44" y1="11.0803" x2="1.76155" y2="11.0803" gradientUnits="userSpaceOnUse">
<stop stop-color="#0016FF"/>
<stop offset="1" stop-color="#00A8FF"/>
</linearGradient>
</defs>
</svg>
