<svg width="22" height="24" viewBox="0 0 22 24" fill="none" xmlns="http://www.w3.org/2000/svg">
<path fill-rule="evenodd" clip-rule="evenodd" d="M11.4471 0.51258C11.9802 0.204945 12.557 0.0461337 13.1502 0.00867364C14.1389 -0.0537523 15.1734 0.224304 16.1248 0.729377C17.6471 1.53752 19.0596 2.93246 20.1112 4.75281C21.1627 6.57317 21.6682 8.49989 21.6073 10.2216C21.5464 11.9432 20.8746 13.5516 19.453 14.372C18.0313 15.1923 16.2955 14.973 14.7733 14.1649C13.251 13.3568 11.8404 11.9521 10.7889 10.1317C9.73735 8.31136 9.22995 6.39441 9.29085 4.67274C9.35174 2.9511 10.0255 1.33292 11.4471 0.51258ZM15.6483 4.82899C15.4564 4.7763 15.2584 4.74247 15.0545 4.72742C14.4428 4.68234 13.7867 4.81497 13.16 5.17664C12.9313 5.31003 12.7649 5.52865 12.6971 5.78457C12.6294 6.04049 12.6659 6.31283 12.7987 6.54188C12.8641 6.65576 12.9513 6.75565 13.0553 6.83583C13.1593 6.91602 13.278 6.97493 13.4048 7.00921C13.5316 7.04349 13.6639 7.05246 13.7941 7.03561C13.9244 7.01876 14.05 6.97643 14.1639 6.91102C15.0538 6.39749 15.447 6.72171 15.701 7.16883C15.9551 7.61591 16.0238 8.15601 15.1678 8.6532C14.9391 8.78659 14.7727 9.00521 14.705 9.26113C14.6372 9.51706 14.6737 9.78939 14.8065 10.0184C14.9399 10.2471 15.1585 10.4136 15.4144 10.4813C15.6703 10.549 15.9427 10.5125 16.1717 10.3798C17.8233 9.42049 18.1709 7.47504 17.4354 6.18055C17.0676 5.53331 16.4157 5.0397 15.6483 4.82899ZM7.49908 16.5076C7.53697 16.4855 7.57316 16.4611 7.60747 16.4346L14.4529 15.3613C12.7076 14.3817 11.0948 12.7527 9.88263 10.6543C8.66993 8.55503 8.06892 6.35034 8.09357 4.34961L3.73983 9.73574C3.69729 9.75339 3.65593 9.77401 3.61603 9.79749L2.36849 10.5135C0.00995005 11.8745 -0.518503 14.391 0.478725 16.0868C1.47595 17.7827 3.91333 18.5675 6.24398 17.2311H6.25154L7.49908 16.5076ZM8.41195 17.2148C8.60902 17.0995 8.77104 16.9327 8.8807 16.7324L10.3123 19.2168C11.1848 20.7272 10.6648 22.6849 9.15409 23.5566C9.14632 23.5593 9.13853 23.5619 9.1307 23.5644C7.46585 24.4798 5.62215 23.7162 4.82014 22.4199C4.81485 22.4128 4.80964 22.4057 4.80454 22.3984L2.76743 18.8652C4.01413 19.1079 5.43312 18.9268 6.82796 18.127H6.83968L8.41195 17.2148Z" fill="url(#paint0_linear_32_387)"/>
<defs>
<linearGradient id="paint0_linear_32_387" x1="11.0629" y1="20.2033" x2="2.76743" y2="20.2033" gradientUnits="userSpaceOnUse">
<stop stop-color="#0018FF"/>
<stop offset="1" stop-color="#00A8FF"/>
</linearGradient>
</defs>
</svg>
