<svg width="25" height="22" viewBox="0 0 25 22" fill="none" xmlns="http://www.w3.org/2000/svg">
<path d="M10.3889 22.0007C11.4014 22.0007 12.2222 21.1798 12.2222 20.1673C12.2222 19.1548 11.4014 18.334 10.3889 18.334C9.37638 18.334 8.55557 19.1548 8.55557 20.1673C8.55557 21.1798 9.37638 22.0007 10.3889 22.0007Z" fill="url(#paint0_linear_31_384)"/>
<path d="M18.9444 22.0007C19.957 22.0007 20.7778 21.1798 20.7778 20.1673C20.7778 19.1548 19.957 18.334 18.9444 18.334C17.9319 18.334 17.1111 19.1548 17.1111 20.1673C17.1111 21.1798 17.9319 22.0007 18.9444 22.0007Z" fill="url(#paint1_linear_31_384)"/>
<path d="M23.2222 4.8889H6.51933L5.10889 1.50334C4.92374 1.0574 4.61036 0.676475 4.20847 0.408841C3.80659 0.141207 3.33429 -0.00108282 2.85144 6.20471e-06H0V2.44445H2.85267L8.64967 16.3595C8.83911 16.8141 9.28522 17.1111 9.77778 17.1111H19.5556C20.0652 17.1111 20.5211 16.7946 20.7008 16.3191L24.3674 6.54134C24.4361 6.35629 24.4591 6.15739 24.4344 5.96155C24.4098 5.76571 24.3382 5.57872 24.2257 5.41649C24.1133 5.25425 23.9633 5.12157 23.7886 5.02971C23.6139 4.93786 23.4196 4.88955 23.2222 4.8889V4.8889ZM14.6667 14.6667L11 11H13.4444V7.33334H15.8889V11H18.3333L14.6667 14.6667Z" fill="url(#paint2_linear_31_384)"/>
<defs>
<linearGradient id="paint0_linear_31_384" x1="12.5306" y1="19.5007" x2="8.33057" y2="19.5007" gradientUnits="userSpaceOnUse">
<stop stop-color="#0018FF"/>
<stop offset="1" stop-color="#00A8FF"/>
</linearGradient>
<linearGradient id="paint1_linear_31_384" x1="21.0862" y1="19.5007" x2="16.8861" y2="19.5007" gradientUnits="userSpaceOnUse">
<stop stop-color="#0018FF"/>
<stop offset="1" stop-color="#00A8FF"/>
</linearGradient>
<linearGradient id="paint2_linear_31_384" x1="26.5" y1="5.44445" x2="-1.5" y2="5.44445" gradientUnits="userSpaceOnUse">
<stop stop-color="#0018FF"/>
<stop offset="1" stop-color="#00A8FF"/>
</linearGradient>
</defs>
</svg>
