<svg width="2988" height="670" viewBox="0 0 2988 670" fill="none" xmlns="http://www.w3.org/2000/svg">
<path d="M2401.24 271.543C2401.24 191.348 2336.13 0.306641 2255.49 0.306641C2174.85 0.306641 2109.74 190.928 2109.74 271.543C2109.74 352.158 2175.27 417.238 2255.49 417.238C2335.71 416.818 2400.82 351.738 2401.24 271.543Z" fill="#F2F2F2"/>
<path d="M2255.49 594.003C2254.65 594.003 2253.81 593.163 2253.81 592.323V252.228C2253.81 251.389 2254.65 250.549 2255.49 250.549C2256.33 250.549 2257.17 251.389 2257.17 252.228V592.323C2257.17 593.163 2256.33 594.003 2255.49 594.003Z" fill="#CCCCCC"/>
<path d="M2255.49 315.629C2255.07 315.629 2254.65 315.629 2254.23 315.209L2170.23 218.639C2169.81 217.799 2169.81 216.959 2170.23 216.12C2171.07 215.7 2171.91 215.7 2172.75 216.12L2256.75 312.69C2257.17 313.529 2257.17 314.369 2256.75 315.209C2256.33 315.629 2255.91 315.629 2255.49 315.629Z" fill="#CCCCCC"/>
<path d="M2255.49 371.471C2254.65 371.471 2253.81 370.632 2253.81 369.792C2253.81 369.372 2253.81 368.952 2254.23 368.532L2301.69 321.087C2302.53 320.247 2303.37 320.247 2304.21 321.087C2305.05 321.927 2305.05 322.766 2304.21 323.606L2256.75 371.051C2256.33 371.471 2255.91 371.471 2255.49 371.471Z" fill="#CCCCCC"/>
<path d="M794.252 412.2C794.252 366.854 757.71 259.367 712.349 259.367C666.987 259.367 630.445 366.854 630.445 412.2C630.445 457.546 667.407 494.075 712.769 494.075C757.71 494.075 794.252 457.546 794.252 412.2Z" fill="#F2F2F2"/>
<path d="M712.349 594.004C711.929 594.004 711.509 593.584 711.509 593.164V401.703C711.509 401.283 711.929 400.863 712.349 400.863C712.769 400.863 713.189 401.283 713.189 401.703V593.164C713.189 593.584 712.769 594.004 712.349 594.004Z" fill="#CCCCCC"/>
<path d="M712.349 437.392C711.929 437.392 711.929 437.392 711.508 436.972L664.467 382.389C664.047 381.969 664.047 381.549 664.467 381.129C664.887 380.709 665.307 380.709 665.727 381.129L712.769 435.713C713.189 436.132 713.189 436.552 712.769 436.972C712.769 437.392 712.349 437.392 712.349 437.392Z" fill="#CCCCCC"/>
<path d="M712.349 468.882C711.929 468.882 711.509 468.462 711.509 468.042C711.509 467.622 711.509 467.622 711.929 467.202L738.81 440.331C739.23 439.911 739.65 439.911 740.07 440.331C740.49 440.75 740.49 441.17 740.07 441.59L713.189 468.462C712.769 468.462 712.349 468.882 712.349 468.882Z" fill="#CCCCCC"/>
<path d="M623.305 592.744C623.305 573.85 638.846 558.314 657.746 558.314C676.647 558.314 692.188 573.85 692.188 592.744" fill="#F2F2F2"/>
<path d="M657.746 592.744C657.326 592.744 656.906 592.324 656.906 591.904V573.85C656.906 573.43 657.326 573.01 657.746 573.01C658.166 573.01 658.586 573.43 658.586 573.85V591.904C658.586 592.324 658.166 592.744 657.746 592.744Z" fill="#CCCCCC"/>
<path d="M657.746 586.446C657.326 586.446 657.326 586.446 657.326 586.026L646.406 576.369C645.986 575.95 645.986 575.53 646.406 575.11C646.826 574.69 647.246 574.69 647.666 575.11L658.586 584.767C659.006 585.187 659.006 585.607 658.586 586.026C658.166 586.446 657.746 586.446 657.746 586.446Z" fill="#CCCCCC"/>
<path d="M728.729 592.744C728.729 573.85 744.27 558.314 763.171 558.314C782.071 558.314 797.612 573.85 797.612 592.744" fill="#F2F2F2"/>
<path d="M763.171 592.744C762.751 592.744 762.331 592.324 762.331 591.904V573.85C762.331 573.43 762.751 573.01 763.171 573.01C763.591 573.01 764.011 573.43 764.011 573.85V591.904C764.011 592.324 763.591 592.744 763.171 592.744Z" fill="#CCCCCC"/>
<path d="M763.171 586.446C762.751 586.446 762.751 586.446 762.751 586.026L751.83 576.369C751.41 575.95 751.41 575.53 751.83 575.11C752.25 574.69 752.67 574.69 753.09 575.11L764.011 584.767C764.431 585.187 764.431 585.607 764.011 586.026C763.591 586.446 763.591 586.446 763.171 586.446Z" fill="#CCCCCC"/>
<path d="M1245.77 593.164L1218.89 594.004L1349.93 65.3867L1374.3 72.9444L1245.77 593.164Z" fill="#3F3D56"/>
<path d="M1482.66 593.164L1509.12 594.004L1378.5 65.3867L1354.13 72.9444L1482.66 593.164Z" fill="#3F3D56"/>
<path d="M1935.02 517.587C1936.28 517.587 1937.54 516.328 1937.54 515.068C1937.54 513.809 1936.28 512.549 1935.02 512.549H1910.66V502.472H1935.02C1936.28 502.472 1937.54 501.212 1937.54 499.953C1937.54 498.693 1936.28 497.434 1935.02 497.434H1728.79C1727.53 497.434 1726.27 498.693 1726.27 499.953C1726.27 501.212 1727.53 502.472 1728.79 502.472H1753.15V512.549H1728.79C1727.53 512.549 1726.27 513.809 1726.27 515.068C1726.27 516.328 1727.53 517.587 1728.79 517.587H1753.15V527.664H1728.79C1727.53 527.664 1726.27 528.924 1726.27 530.183C1726.27 531.443 1727.53 532.703 1728.79 532.703H1753.15V542.78H1731.31C1728.37 542.78 1726.27 544.879 1726.27 547.818C1726.27 550.757 1728.37 552.857 1731.31 552.857H1751.89C1751.89 553.276 1751.47 553.696 1751.47 554.116V589.805C1751.47 591.904 1753.15 593.584 1755.25 593.584C1757.35 593.584 1759.03 591.904 1759.03 589.805V554.116C1759.03 553.696 1759.03 553.276 1758.61 552.857H1904.36C1904.36 553.276 1903.94 553.696 1903.94 554.116V589.805C1903.94 591.904 1905.62 593.584 1907.72 593.584C1909.82 593.584 1911.5 591.904 1911.5 589.805V554.116C1911.5 553.696 1911.5 553.276 1911.08 552.857H1931.66C1934.6 552.857 1936.7 550.757 1936.7 547.818C1936.7 544.879 1934.6 542.78 1931.66 542.78H1909.82V532.703H1934.18C1935.44 532.703 1936.7 531.443 1936.7 530.183C1936.7 528.924 1935.44 527.664 1934.18 527.664H1909.82V517.587H1935.02ZM1758.19 502.472H1906.04V512.549H1758.19V502.472ZM1905.62 543.2H1757.77V533.123H1905.62V543.2ZM1905.62 528.084H1757.77V517.587H1905.62V528.084Z" fill="#3F3D56"/>
<path d="M1069.36 517.587C1070.62 517.587 1071.88 516.328 1071.88 515.068C1071.88 513.809 1070.62 512.549 1069.36 512.549H1045V502.472H1069.36C1070.62 502.472 1071.88 501.212 1071.88 499.953C1071.88 498.693 1070.62 497.434 1069.36 497.434H863.135C861.875 497.434 860.615 498.693 860.615 499.953C860.615 501.212 861.875 502.472 863.135 502.472H887.496V512.549H863.135C861.875 512.549 860.615 513.809 860.615 515.068C860.615 516.328 861.875 517.587 863.135 517.587H887.496V527.664H863.135C861.875 527.664 860.615 528.924 860.615 530.183C860.615 531.443 861.875 532.703 863.135 532.703H887.496V542.78H865.655C862.715 542.78 860.615 544.879 860.615 547.818C860.615 550.757 862.715 552.857 865.655 552.857H886.236C886.236 553.276 885.816 553.696 885.816 554.116V589.805C885.816 591.904 887.496 593.584 889.596 593.584C891.696 593.584 893.376 591.904 893.376 589.805V554.116C893.376 553.696 893.376 553.276 892.956 552.857H1038.7C1038.7 553.276 1038.28 553.696 1038.28 554.116V589.805C1038.28 591.904 1039.96 593.584 1042.06 593.584C1044.16 593.584 1045.84 591.904 1045.84 589.805V554.116C1045.84 553.696 1045.84 553.276 1045.42 552.857H1066C1068.94 552.857 1071.04 550.757 1071.04 547.818C1071.04 544.879 1068.94 542.78 1066 542.78H1045V532.703H1069.36C1070.62 532.703 1071.88 531.443 1071.88 530.183C1071.88 528.924 1070.62 527.664 1069.36 527.664H1045V517.587H1069.36ZM892.536 502.472H1040.38V512.549H892.536V502.472ZM1039.96 543.2H892.116V533.123H1039.96V543.2V543.2ZM1039.96 528.084H892.116V517.587H1039.96V528.084V528.084Z" fill="#3F3D56"/>
<path d="M1871.6 503.731H1864.03C1861.93 503.731 1860.25 502.051 1860.25 499.952V492.394C1860.25 490.295 1861.93 488.615 1864.03 488.615H1871.6C1873.7 488.615 1875.38 490.295 1875.38 492.394V499.952C1875.38 502.051 1873.7 503.731 1871.6 503.731Z" fill="#CCCCCC"/>
<path d="M1867.81 495.333H1867.39C1866.13 494.913 1864.87 493.654 1865.29 492.394L1890.5 345.859C1890.92 344.6 1892.18 343.34 1893.44 343.76C1894.7 344.18 1895.54 345.44 1895.54 346.699L1870.33 493.234C1869.91 494.494 1869.07 495.333 1867.81 495.333Z" fill="#CCCCCC"/>
<path d="M1867.82 495.333C1866.55 495.333 1865.71 494.494 1865.29 493.234L1840.09 346.699C1839.67 345.44 1840.93 344.18 1842.19 343.76C1843.45 343.34 1844.71 344.6 1845.13 345.859L1870.33 492.394C1870.76 493.654 1869.49 494.913 1868.23 495.333H1867.82Z" fill="#CCCCCC"/>
<path d="M1922 320.668C1924.52 303.453 1915.28 287.498 1901.42 285.819C1887.56 284.139 1874.12 296.315 1871.6 313.95C1869.5 328.645 1875.8 342.081 1886.3 347.12L1885.88 351.318L1898.48 352.998L1898.9 348.799C1910.24 346.7 1919.9 335.363 1922 320.668Z" fill="url(#paint0_linear_29_352)"/>
<path d="M1863.61 312.69C1860.67 295.476 1846.81 283.299 1832.95 285.819C1819.09 288.338 1810.27 304.293 1813.21 321.508C1815.73 336.203 1825.81 347.12 1837.15 348.379L1837.99 352.578L1850.59 350.479L1849.75 346.28C1860.25 341.241 1866.13 327.386 1863.61 312.69Z" fill="#CCCCCC"/>
<path d="M1867.81 492.395C1866.55 492.395 1865.29 491.135 1865.29 489.876V339.142C1865.29 337.883 1866.55 336.623 1867.81 336.623C1869.07 336.623 1870.33 337.883 1870.33 339.142V489.876C1870.33 491.135 1869.07 492.395 1867.81 492.395Z" fill="#CCCCCC"/>
<path d="M1891.34 310.172C1891.34 292.537 1880 278.262 1865.71 278.262C1851.85 278.262 1840.09 292.537 1840.09 310.172C1840.09 324.867 1848.07 337.463 1858.99 340.822V345.021H1871.6V340.822C1883.36 337.463 1891.34 324.867 1891.34 310.172Z" fill="url(#paint1_linear_29_352)"/>
<path d="M2985.06 598.202H2.94012C1.26005 598.202 0 596.943 0 595.263C0 593.584 1.26005 592.324 2.94012 592.324H2985.06C2986.74 592.324 2988 593.584 2988 595.263C2988 596.523 2986.74 598.202 2985.06 598.202Z" fill="#CCCCCC"/>
<path d="M1997.18 592.743H1991.72L1988.78 570.07H1997.18V592.743Z" fill="#A0616A"/>
<path d="M1986.68 591.064H1998.86V598.202H1980.8V597.363C1980.38 593.584 1983.32 591.064 1986.68 591.064Z" fill="#2F2E41"/>
<path d="M2039.18 586.027L2034.14 588.546L2022.38 569.232L2029.94 565.873L2039.18 586.027Z" fill="#A0616A"/>
<path d="M2028.68 588.964L2039.6 583.926L2042.54 590.224L2026.16 597.782L2025.74 596.942C2024.48 594.003 2025.74 590.644 2028.68 588.964Z" fill="#2F2E41"/>
<path d="M1996.76 586.867H1991.3C1990.04 586.867 1989.2 586.027 1989.2 584.767L1986.26 504.152C1986.26 502.892 1987.1 502.053 1988.36 502.053H1988.78L2020.7 505.412C2021.96 505.412 2022.8 506.251 2022.8 507.511L2023.64 543.2V543.62L2036.66 577.629C2037.08 578.889 2036.66 580.149 2035.4 580.568L2029.94 582.668C2029.1 583.088 2027.84 582.668 2027.42 581.828L2011.46 550.338V549.918L2008.52 536.482C2008.52 535.642 2007.26 535.222 2006.42 535.222C2005.58 535.222 2005.16 536.062 2005.16 536.482L1999.7 585.187C1998.86 586.027 1998.02 586.867 1996.76 586.867Z" fill="#2F2E41"/>
<path d="M1999.7 441.171C2006.2 441.171 2011.46 435.907 2011.46 429.415C2011.46 422.922 2006.2 417.658 1999.7 417.658C1993.21 417.658 1987.94 422.922 1987.94 429.415C1987.94 435.907 1993.21 441.171 1999.7 441.171Z" fill="#A0616A"/>
<path d="M2022.38 517.167C2024.48 515.488 2024.9 512.549 2023.22 510.449C2023.22 510.029 2022.8 510.029 2022.8 510.029L2029.52 494.494L2020.7 495.754L2015.66 510.029C2013.98 512.129 2014.4 515.068 2016.5 516.747C2018.18 518.427 2020.7 518.847 2022.38 517.167Z" fill="#A0616A"/>
<path d="M2009.36 439.911C2008.1 439.911 2007.26 438.652 2006.84 437.392C2006.84 436.132 2006.84 434.873 2007.26 434.033C2007.26 432.774 2006.84 431.514 2005.58 431.094C2004.32 430.674 2003.06 431.934 2001.8 431.514C2000.12 431.514 1998.86 429.415 1998.86 427.315C1998.44 425.636 1998.44 423.536 1996.76 422.697C1995.08 421.857 1993.4 422.277 1991.3 422.277C1987.94 422.277 1985.42 420.177 1984.58 417.238C1985.42 417.658 1986.26 417.238 1986.68 416.399C1987.1 415.559 1986.68 414.719 1986.26 414.299L1989.62 415.979C1989.2 415.139 1989.62 413.879 1990.88 413.459C1991.72 413.04 1992.98 413.04 1994.24 413.459C1999.7 414.299 2006 413.879 2009.36 418.078C2011.88 421.437 2013.56 425.636 2013.56 429.834C2012.72 433.613 2011.04 436.972 2009.36 439.911Z" fill="#2F2E41"/>
<path d="M1947.62 459.645C1949.72 458.385 1952.66 459.225 1953.92 461.324C1953.92 461.744 1954.34 461.744 1954.34 462.164H1971.14L1966.52 469.721L1951.4 468.882C1948.88 469.721 1946.36 468.042 1945.52 465.523C1944.68 463.004 1945.94 460.904 1947.62 459.645Z" fill="#A0616A"/>
<path d="M2034.56 479.799L2022.8 460.485C2022.8 460.065 2022.38 460.065 2021.96 459.645C2020.7 455.446 2018.18 452.087 2014.4 449.568C2013.56 448.728 2012.3 448.308 2011.46 447.889C2006.42 446.209 2000.96 446.629 1996.34 449.568C1994.24 450.828 1992.14 452.927 1990.88 455.026L1980.8 460.905L1961.06 461.744C1960.22 461.744 1959.8 462.164 1958.96 462.584L1956.86 465.523C1956.44 465.943 1956.44 466.783 1956.44 467.203V467.622C1956.86 468.462 1957.28 468.882 1958.12 468.882L1981.22 473.921C1982.9 474.34 1985 473.921 1986.26 472.661L1987.94 470.981L1985.84 502.892C1985.84 503.731 1986.26 504.571 1986.68 504.991C1992.98 508.77 2000.54 510.869 2007.68 510.869C2013.14 510.869 2018.18 509.61 2023.22 507.51C2023.22 507.51 2023.22 507.51 2023.64 507.51C2024.48 507.51 2024.9 507.09 2025.32 506.251L2034.98 484.837C2035.4 483.158 2035.4 481.478 2034.56 479.799ZM2021.96 490.715C2021.96 486.517 2021.96 481.898 2021.96 477.279L2024.48 482.318L2021.96 490.715Z" fill="url(#paint2_linear_29_352)"/>
<path d="M1666.21 583.087C1667.05 580.568 1665.79 577.629 1663.27 576.789C1662.85 576.789 1662.85 576.789 1662.43 576.369L1659.49 559.154L1652.77 565.452L1656.55 580.568C1656.13 583.087 1658.23 585.606 1661.17 586.026C1663.27 586.446 1665.37 585.186 1666.21 583.087Z" fill="#FFB8B8"/>
<path d="M1638.07 508.771C1644.56 508.771 1649.83 503.507 1649.83 497.014C1649.83 490.521 1644.56 485.258 1638.07 485.258C1631.57 485.258 1626.31 490.521 1626.31 497.014C1626.31 503.507 1631.57 508.771 1638.07 508.771Z" fill="#FFB8B8"/>
<path d="M1603.2 660.343L1597.32 658.663L1601.1 635.57L1609.5 638.089L1603.2 660.343Z" fill="#FFB8B8"/>
<path d="M1673.35 670L1643.11 660.763V660.343C1645.21 653.625 1651.93 650.266 1658.65 651.946L1677.13 657.404L1673.35 670Z" fill="#2F2E41"/>
<path d="M1665.79 659.923H1659.49L1656.97 636.83H1662.85L1665.79 659.923Z" fill="#FFB8B8"/>
<path d="M1779.19 669.161H1747.27V668.741C1747.27 662.023 1752.73 656.564 1759.45 656.564H1778.77L1779.19 669.161Z" fill="#2F2E41"/>
<path d="M1605.3 653.624H1599.42C1598.16 653.624 1597.32 652.785 1597.32 651.525V651.105C1593.54 649.426 1614.12 550.756 1618.74 552.855V552.436L1643.11 554.535C1654.03 576.368 1661.17 612.897 1667.47 650.685C1667.89 651.945 1667.05 653.204 1665.79 653.204H1665.37L1658.65 653.624C1657.81 653.624 1656.97 653.204 1656.55 652.365L1630.93 588.125C1630.93 587.705 1630.51 587.705 1630.09 587.705C1629.67 587.705 1629.67 587.705 1629.25 588.125L1606.98 652.365C1606.98 652.785 1606.14 653.624 1605.3 653.624Z" fill="#2F2E41"/>
<path d="M1661.59 510.449C1653.19 514.228 1642.27 513.388 1629.67 510.449C1631.35 505.831 1632.61 500.792 1631.35 497.433C1630.09 494.914 1630.09 491.975 1630.93 489.036C1633.45 483.158 1639.33 479.379 1645.63 479.379C1654.45 479.379 1661.59 486.517 1661.59 495.334V510.449Z" fill="#2F2E41"/>
<path d="M1635.13 480.639H1643.95V493.235H1622.53C1622.53 486.097 1627.99 480.639 1635.13 480.639Z" fill="#2F2E41"/>
<path d="M1617.06 585.606C1619.16 583.927 1619.16 580.568 1617.48 578.889C1617.48 578.469 1617.06 578.469 1616.64 578.469L1622.1 562.094L1613.28 564.613L1609.5 579.728C1607.82 581.828 1608.66 585.187 1610.76 586.446C1612.86 587.706 1615.38 587.286 1617.06 585.606Z" fill="#FFB8B8"/>
<path d="M1659.91 551.596L1652.77 526.823C1652.77 523.884 1651.93 521.365 1650.25 518.846C1649.83 518.006 1649.41 517.586 1648.57 516.747C1645.21 512.968 1640.59 511.288 1635.55 512.128H1635.13C1632.19 512.548 1630.09 513.807 1627.99 515.067C1624.63 514.647 1621.27 516.747 1620.85 520.106L1619.16 531.022L1609.92 573.009C1609.92 573.849 1610.34 574.269 1610.76 574.269L1617.48 575.948C1617.48 575.948 1617.48 575.948 1617.9 575.948C1618.33 575.948 1618.74 575.528 1619.16 575.108L1627.15 554.535V554.115L1644.37 555.375L1646.89 548.237L1654.45 575.108C1654.45 575.948 1655.29 575.948 1656.13 575.948L1662.43 574.269C1662.43 574.269 1662.43 574.269 1662.85 574.269C1663.27 573.849 1663.69 573.429 1663.69 573.009L1659.91 551.596Z" fill="url(#paint3_linear_29_352)"/>
<path d="M1818.25 485.677C1817.83 485.677 1817.83 485.677 1817.41 486.097L1797.67 473.501L1798.09 468.043L1789.69 466.363L1788.43 476.44C1788.01 478.12 1789.27 479.799 1790.53 480.219L1814.47 491.136C1814.89 493.655 1817.41 495.754 1819.93 495.334C1822.45 494.914 1824.55 492.395 1824.13 489.876C1823.71 487.357 1821.19 485.257 1818.67 485.677C1818.67 485.677 1818.67 485.677 1818.25 485.677Z" fill="#FFB8B8"/>
<path d="M1797.25 472.661L1786.75 470.562C1785.49 470.142 1784.65 469.302 1785.07 468.043C1785.07 468.043 1785.07 468.043 1785.07 467.623L1788.43 457.546C1788.85 454.187 1792.21 452.088 1795.15 452.927C1798.51 453.347 1800.61 456.706 1799.77 459.645L1799.35 470.142C1799.77 471.821 1798.51 473.081 1797.25 472.661C1797.25 472.661 1797.25 473.081 1797.25 472.661Z" fill="#3F3D56"/>
<path d="M1833.79 445.37C1833.79 445.79 1833.79 445.79 1833.79 446.21L1813.63 457.966L1808.59 455.027L1803.55 461.745L1811.95 467.623C1813.21 468.463 1815.31 468.463 1816.57 467.623L1837.57 451.248C1840.09 452.088 1843.03 450.828 1843.87 448.309C1844.71 445.79 1843.45 442.851 1840.93 442.011C1838.41 441.171 1835.47 442.431 1834.63 444.95C1833.79 444.95 1833.79 445.37 1833.79 445.37Z" fill="#FFB8B8"/>
<path d="M1812.79 458.386L1806.07 466.784C1805.23 467.623 1803.97 468.043 1803.13 467.203C1803.13 467.203 1803.13 467.203 1802.71 467.203L1795.15 459.646C1792.63 457.546 1792.21 453.768 1794.31 451.248C1796.41 448.729 1800.19 448.309 1802.71 450.409L1811.95 455.447C1813.21 455.867 1813.63 457.127 1812.79 458.386Z" fill="#CCCCCC"/>
<path d="M1785.91 438.232C1792.17 438.232 1797.25 433.156 1797.25 426.895C1797.25 420.634 1792.17 415.559 1785.91 415.559C1779.65 415.559 1774.57 420.634 1774.57 426.895C1774.57 433.156 1779.65 438.232 1785.91 438.232Z" fill="#FFB8B8"/>
<path d="M1796.83 591.903H1802.71L1805.23 569.65H1796.83V591.903Z" fill="#FFB8B8"/>
<path d="M1795.57 590.225H1806.91C1811.11 590.225 1814.05 593.584 1814.05 597.362V597.782H1795.57V590.225Z" fill="#2F2E41"/>
<path d="M1777.09 591.903H1782.97L1785.49 569.65H1777.09V591.903Z" fill="#FFB8B8"/>
<path d="M1775.83 590.225H1787.17C1791.37 590.225 1794.31 593.584 1794.31 597.362V597.782H1775.83V590.225Z" fill="#2F2E41"/>
<path d="M1795.15 583.506L1789.27 538.16C1789.27 538.16 1789.27 537.741 1788.85 537.741C1788.85 537.741 1788.43 537.741 1788.43 538.16L1786.75 583.087C1786.75 584.346 1785.91 585.186 1784.65 585.186H1777.51C1776.25 585.186 1775.41 584.346 1775.41 583.087L1773.73 508.35L1804.81 508.77L1805.65 583.506C1805.65 583.926 1805.23 584.766 1804.81 585.186C1804.39 585.606 1803.97 585.606 1803.13 585.606H1796.41C1795.99 585.186 1795.15 584.346 1795.15 583.506Z" fill="#2F2E41"/>
<path d="M1773.73 510.449C1772.89 510.029 1772.47 509.609 1772.47 508.769L1772.05 467.622C1770.79 458.385 1769.11 449.567 1777.09 444.949L1777.93 442.849C1777.93 442.43 1778.35 442.01 1779.19 442.01L1794.31 441.59C1794.73 441.59 1795.15 442.01 1795.57 442.43L1796.83 444.949L1797.25 445.369C1805.23 449.987 1809.43 458.385 1808.17 467.202L1807.33 474.34L1806.91 508.349C1806.91 509.189 1806.49 509.609 1805.65 510.029C1801.45 512.128 1796.41 513.388 1791.79 513.388C1785.07 513.388 1779.19 512.548 1773.73 510.449Z" fill="#CCCCCC"/>
<path d="M1785.49 438.651C1778.77 438.651 1772.89 433.613 1772.89 426.475C1772.89 419.757 1777.93 413.879 1785.07 413.879C1785.91 413.879 1787.17 413.879 1788.01 414.299C1790.53 412.619 1793.47 411.779 1796.41 411.779C1799.35 411.779 1802.29 413.879 1803.55 416.398C1804.81 419.337 1803.55 422.696 1800.61 423.956C1798.93 424.375 1796.83 424.375 1795.15 423.956C1793.47 423.536 1791.37 423.536 1789.69 424.375C1788.01 425.215 1787.17 428.154 1788.85 428.994C1790.53 430.254 1790.95 432.773 1790.11 434.452C1789.27 436.971 1787.59 438.231 1785.49 438.651Z" fill="#2F2E41"/>
<path d="M1116.82 659.923H1122.29L1125.23 638.09H1116.82V659.923Z" fill="#FFB8B8"/>
<path d="M867.335 670V654.465H887.496C895.056 654.465 900.936 660.343 900.936 667.901V670H867.335Z" fill="#2F2E41"/>
<path d="M1086.58 659.923H1092.04L1094.56 638.09H1086.58V659.923Z" fill="#FFB8B8"/>
<path d="M817.353 670V654.465H837.514C845.074 654.465 850.954 660.343 850.954 667.901V670H817.353Z" fill="#2F2E41"/>
<path d="M1102.96 506.251C1109.69 506.251 1115.14 500.799 1115.14 494.075C1115.14 487.35 1109.69 481.898 1102.96 481.898C1096.24 481.898 1090.78 487.35 1090.78 494.075C1090.78 500.799 1096.24 506.251 1102.96 506.251Z" fill="#FFB8B8"/>
<path d="M1144.13 572.59C1143.71 570.071 1141.61 568.392 1139.09 568.392C1138.67 568.392 1138.67 568.392 1138.25 568.392L1131.53 560.414L1125.65 563.353L1135.31 574.69C1136.15 577.209 1139.09 578.468 1141.19 577.209C1143.29 576.789 1144.55 574.69 1144.13 572.59Z" fill="#FFB8B8"/>
<path d="M1086.16 580.568C1087.42 578.469 1086.16 575.53 1084.06 574.27C1083.64 574.27 1083.64 574.27 1083.22 573.85L1081.96 563.353L1075.24 562.514L1077.34 577.209C1076.92 579.728 1078.6 582.248 1081.12 582.667C1083.22 583.507 1085.32 582.667 1086.16 580.568Z" fill="#FFB8B8"/>
<path d="M1092.88 516.746C1090.78 514.227 1087 513.807 1084.48 515.907C1083.64 516.746 1082.8 517.586 1082.8 518.426L1072.72 543.198C1071.88 545.717 1071.46 548.657 1071.88 551.176L1075.24 573.009C1075.24 574.269 1076.5 574.689 1077.34 574.689C1077.34 574.689 1077.34 574.689 1077.76 574.689L1081.96 573.429C1082.8 573.009 1083.64 572.169 1083.22 571.33C1081.54 558.733 1083.64 545.717 1089.1 533.961L1093.72 523.464C1094.56 520.525 1094.14 518.426 1092.88 516.746Z" fill="#CCCCCC"/>
<path d="M1100.02 505.831C1092.88 505.831 1087 500.372 1087 493.234C1087 486.097 1092.46 480.218 1099.6 480.218C1100.44 480.218 1101.7 480.218 1102.54 480.638C1105.06 478.959 1108.42 478.119 1111.36 478.119C1114.72 478.119 1117.24 480.218 1118.5 483.158C1119.76 486.097 1118.5 489.456 1115.56 491.135C1113.46 491.555 1111.78 491.555 1109.68 491.135C1107.58 490.715 1105.48 490.715 1103.8 491.555C1102.12 492.395 1101.28 495.334 1102.96 496.593C1104.64 497.853 1105.06 500.372 1104.64 502.472C1103.8 504.151 1102.12 505.411 1100.02 505.831Z" fill="#2F2E41"/>
<path d="M1084.9 572.17L1082.8 653.205C1082.8 654.464 1083.64 655.304 1084.9 655.304L1092.04 654.884C1092.88 654.884 1093.72 654.045 1093.72 653.205L1102.12 600.721C1102.12 600.301 1102.54 599.881 1103.38 599.881C1103.8 599.881 1104.22 600.301 1104.22 600.721L1115.56 651.525C1115.98 652.785 1116.82 653.205 1118.08 653.205C1118.08 653.205 1118.08 653.205 1118.5 653.205L1125.65 652.785C1126.49 652.365 1126.91 651.525 1126.91 650.686L1120.6 571.75L1084.9 572.17Z" fill="#2F2E41"/>
<path d="M1081.54 533.543C1080.28 521.366 1089.1 510.45 1101.28 509.19H1101.7C1107.16 508.77 1115.14 508.77 1118.08 515.488C1126.07 536.482 1111.78 536.062 1116.82 554.116C1121.86 572.171 1126.07 573.43 1119.34 574.69C1112.62 575.95 1081.96 583.927 1083.22 570.911C1084.06 562.934 1082.8 545.719 1081.54 533.543Z" fill="#CCCCCC"/>
<path d="M1116.4 513.388C1113.46 512.128 1110.1 513.808 1108.84 516.747C1108.42 517.587 1108.42 518.846 1108.42 519.686L1112.2 543.619C1113.04 547.817 1114.72 551.596 1117.24 554.955L1129.85 570.07C1130.69 570.91 1131.95 570.91 1132.79 570.49C1132.79 570.49 1132.79 570.49 1133.21 570.49L1136.15 567.131C1136.99 566.292 1136.99 565.452 1136.15 564.612L1135.31 563.353C1128.17 554.115 1123.55 542.779 1121.87 531.023L1120.18 518.426C1120.18 516.327 1118.5 514.228 1116.4 513.388Z" fill="#CCCCCC"/>
<path d="M1144.55 578.048C1147.07 576.788 1147.91 573.849 1146.65 571.75C1146.65 571.33 1146.23 571.33 1146.23 570.91L1149.59 536.48H1142.03L1139.09 570.07C1136.99 571.75 1136.99 574.689 1138.67 576.788C1140.35 578.468 1142.87 578.887 1144.55 578.048Z" fill="#A0616A"/>
<path d="M1151.69 517.587C1157.72 517.587 1162.61 512.7 1162.61 506.671C1162.61 500.641 1157.72 495.754 1151.69 495.754C1145.66 495.754 1140.77 500.641 1140.77 506.671C1140.77 512.7 1145.66 517.587 1151.69 517.587Z" fill="#A0616A"/>
<path d="M1169.33 659.083H1174.79L1177.31 638.51H1169.33V659.083Z" fill="#A0616A"/>
<path d="M986.2 668.74H953.858V653.625H973.179C980.319 653.625 986.2 659.503 986.2 666.641V668.74Z" fill="#2F2E41"/>
<path d="M1115.56 652.365L1120.19 654.884L1132.37 637.669L1125.65 633.891L1115.56 652.365Z" fill="#A0616A"/>
<path d="M888.756 669.58L860.615 654.045L867.755 641.029L884.556 650.266C890.856 653.625 892.956 661.603 889.596 667.901L888.756 669.58Z" fill="#2F2E41"/>
<path d="M1169.33 647.747C1168.49 647.747 1167.65 646.907 1167.23 646.067L1160.51 594.003C1160.51 593.583 1160.09 593.163 1159.25 593.163C1158.83 593.163 1158.41 593.583 1158.41 593.583L1130.27 644.388C1129.85 645.227 1128.59 645.647 1127.75 645.227L1121.44 642.708C1120.6 642.288 1119.76 641.029 1120.18 640.189L1139.51 592.324V591.904C1142.03 571.33 1148.75 561.253 1150.85 558.314C1151.27 557.894 1151.27 557.474 1151.27 557.055L1150.85 556.215C1150.43 555.375 1150.85 554.955 1151.27 554.115C1158.41 546.138 1171.01 550.337 1171.01 550.337C1184.87 569.651 1179.83 632.211 1178.57 644.388C1178.57 645.227 1177.73 646.067 1176.89 646.067L1169.33 647.747Z" fill="#2F2E41"/>
<path d="M1193.69 519.267C1193.69 519.686 1193.69 519.686 1193.69 520.106L1174.79 531.023L1170.17 528.504L1165.13 534.802L1172.69 540.26C1173.95 541.1 1175.63 541.1 1176.89 540.26L1196.21 524.725C1198.73 525.565 1201.25 524.305 1202.09 522.206C1202.93 519.686 1201.67 517.167 1199.57 516.327C1197.05 515.488 1194.53 516.747 1193.69 518.847C1193.69 518.847 1193.69 518.847 1193.69 519.267Z" fill="#A0616A"/>
<path d="M1173.53 528.503L1165.97 524.305C1162.61 520.946 1157.57 519.686 1152.53 521.366C1152.11 521.366 1151.69 521.786 1151.27 521.786C1144.97 525.144 1142.03 532.702 1145.39 539.42C1147.91 544.458 1150.43 549.917 1152.11 555.375C1152.53 556.215 1152.95 556.635 1154.21 556.635H1154.63L1170.59 553.276C1171.43 553.276 1172.27 552.436 1172.27 551.596C1172.69 546.558 1172.27 541.1 1171.01 536.061L1174.37 531.862C1174.37 531.862 1174.37 531.862 1174.37 531.443C1174.79 530.183 1174.37 528.923 1173.53 528.503Z" fill="url(#paint4_linear_29_352)"/>
<path d="M1150.43 544.878L1140.77 543.198C1139.51 543.198 1139.09 541.939 1139.09 541.099C1139.09 541.099 1139.09 541.099 1139.09 540.679L1142.45 531.442C1142.87 528.503 1145.81 526.403 1148.75 527.243C1151.69 527.663 1153.79 530.602 1152.95 533.541L1152.53 543.618C1152.53 544.038 1151.69 544.878 1150.43 544.878Z" fill="#6C63FF"/>
<path d="M1153.37 504.152C1156.31 506.251 1159.67 507.931 1162.61 505.831C1164.29 504.572 1165.13 502.053 1164.29 499.953C1163.03 496.174 1159.25 494.495 1155.47 493.235C1150.85 491.136 1145.81 490.716 1141.19 491.556C1136.57 492.815 1132.37 497.434 1133.21 502.473C1134.05 506.251 1137.41 509.61 1136.99 513.389C1136.57 517.168 1131.95 519.267 1128.17 520.107C1124.39 520.947 1119.76 520.947 1116.82 523.886C1113.04 527.665 1114.3 533.963 1117.66 537.742C1121.44 541.101 1126.07 543.62 1131.11 544.46C1137.83 546.139 1144.97 546.979 1150.85 544.46C1157.15 541.94 1161.77 534.803 1160.09 528.504C1159.25 525.985 1157.57 523.466 1155.89 521.367C1153.79 519.267 1152.53 516.748 1151.69 513.809C1151.27 511.29 1151.69 508.771 1152.95 507.091C1153.79 505.831 1153.79 504.992 1153.37 504.152Z" fill="#2F2E41"/>
<defs>
<linearGradient id="paint0_linear_29_352" x1="1871.19" y1="319.331" x2="1922.36" y2="319.331" gradientUnits="userSpaceOnUse">
<stop stop-color="#19FF15"/>
<stop offset="1" stop-color="#15BAFF"/>
</linearGradient>
<linearGradient id="paint1_linear_29_352" x1="1840.6" y1="311.641" x2="1891.48" y2="311.641" gradientUnits="userSpaceOnUse">
<stop stop-color="#F635FF"/>
<stop offset="1" stop-color="#E94E00"/>
</linearGradient>
<linearGradient id="paint2_linear_29_352" x1="1956.44" y1="478.888" x2="2035.26" y2="478.888" gradientUnits="userSpaceOnUse">
<stop stop-color="#FF008E"/>
<stop offset="1" stop-color="#FFCE00"/>
</linearGradient>
<linearGradient id="paint3_linear_29_352" x1="1609.52" y1="543.932" x2="1662.74" y2="543.932" gradientUnits="userSpaceOnUse">
<stop stop-color="#F635FF"/>
<stop offset="1" stop-color="#E94E00"/>
</linearGradient>
<linearGradient id="paint4_linear_29_352" x1="1143.85" y1="538.63" x2="1174.53" y2="538.63" gradientUnits="userSpaceOnUse">
<stop stop-color="#19FF15"/>
<stop offset="1" stop-color="#15BAFF"/>
</linearGradient>
</defs>
</svg>
