<svg width="20" height="19" viewBox="0 0 20 19" fill="none" xmlns="http://www.w3.org/2000/svg">
<path d="M10.7062 2H16.875C18.4629 2 19.774 3.18421 19.9736 4.71761L19.9934 4.91952L20 5.125V13.7282L18.2005 11.9297C17.468 11.1976 16.2809 11.198 15.5489 11.9304C15.0224 12.4572 14.8746 13.2193 15.1058 13.878H13.6483C13.8793 13.2199 13.732 12.4585 13.2065 11.9316C12.4751 11.1985 11.2879 11.1971 10.5547 11.9285L8.05075 14.4266C7.69805 14.7785 7.49989 15.2562 7.5 15.7544C7.50011 16.2526 7.69848 16.7302 8.05133 17.082L8.5961 17.625H3.125C1.46815 17.625 0.11245 16.3356 0.00665009 14.7055L0 14.5V5.75H6.33836L6.52981 5.74021C6.90971 5.70122 7.26886 5.54704 7.55877 5.29846L7.69774 5.1664L10.7062 2Z" fill="url(#paint0_linear_31_386)"/>
<path d="M6.45834 0.125C6.79641 0.125 7.12689 0.216375 7.41548 0.3877L7.58334 0.5L9.23125 1.73625L6.79149 4.30546L6.7155 4.3734C6.63463 4.43459 6.54001 4.47521 6.43995 4.49169L6.33836 4.5H0V3.25C0 1.59315 1.28943 0.23745 2.91953 0.13165L3.125 0.125H6.45834Z" fill="url(#paint1_linear_31_386)"/>
<path d="M12.3205 13.6964C12.5649 13.4525 12.5652 13.0569 12.3215 12.8125C12.0777 12.5681 11.682 12.5676 11.4376 12.8114L8.93358 15.3095C8.81601 15.4269 8.74996 15.5861 8.75 15.7521C8.75004 15.9183 8.81616 16.0774 8.93378 16.1946L11.4379 18.6906C11.6823 18.9344 12.078 18.9336 12.3217 18.6893C12.5654 18.4448 12.5648 18.049 12.3203 17.8054L10.8862 16.376H17.8658L16.4335 17.8056C16.1891 18.0495 16.1888 18.4453 16.4326 18.6895C16.6765 18.9339 17.0722 18.9343 17.3165 18.6904L19.8165 16.1949C19.934 16.0778 20 15.9186 20 15.7528C20 15.5869 19.9341 15.4278 19.8169 15.3105L17.3169 12.8119C17.0726 12.5679 16.677 12.5679 16.433 12.812C16.1889 13.0563 16.189 13.4519 16.4331 13.696L17.864 15.126H10.8875L12.3205 13.6964Z" fill="url(#paint2_linear_31_386)"/>
<defs>
<linearGradient id="paint0_linear_31_386" x1="21" y1="7.72946" x2="-0.5" y2="7.72947" gradientUnits="userSpaceOnUse">
<stop stop-color="#0018FF"/>
<stop offset="1" stop-color="#00A8FF"/>
</linearGradient>
<linearGradient id="paint1_linear_31_386" x1="9.69281" y1="1.72925" x2="-0.230781" y2="1.72925" gradientUnits="userSpaceOnUse">
<stop stop-color="#0018FF"/>
<stop offset="1" stop-color="#00A8FF"/>
</linearGradient>
<linearGradient id="paint2_linear_31_386" x1="20.5625" y1="14.9185" x2="8.46875" y2="14.9185" gradientUnits="userSpaceOnUse">
<stop stop-color="#0018FF"/>
<stop offset="1" stop-color="#00A8FF"/>
</linearGradient>
</defs>
</svg>
